<svg xmlns="http://www.w3.org/2000/svg" xmlns:xlink="http://www.w3.org/1999/xlink" width="800" zoomAndPan="magnify" viewBox="0 0 600 599.999999" height="800" preserveAspectRatio="xMidYMid meet" version="1.2"><g id="08006fc06d"><path style=" stroke:none;fill-rule:nonzero;fill:#3a99d7;fill-opacity:1;" d="M 599.992188 299.996094 C 599.992188 304.90625 599.871094 309.8125 599.628906 314.714844 C 599.390625 319.621094 599.027344 324.515625 598.546875 329.398438 C 598.066406 334.285156 597.464844 339.15625 596.746094 344.015625 C 596.023438 348.871094 595.183594 353.707031 594.226562 358.519531 C 593.269531 363.335938 592.195312 368.125 591 372.886719 C 589.808594 377.652344 588.5 382.382812 587.074219 387.078125 C 585.648438 391.777344 584.109375 396.4375 582.457031 401.0625 C 580.800781 405.683594 579.035156 410.261719 577.15625 414.796875 C 575.277344 419.335938 573.289062 423.820312 571.1875 428.261719 C 569.089844 432.699219 566.882812 437.082031 564.570312 441.410156 C 562.253906 445.742188 559.835938 450.011719 557.3125 454.222656 C 554.785156 458.433594 552.160156 462.582031 549.433594 466.664062 C 546.707031 470.746094 543.878906 474.757812 540.953125 478.703125 C 538.03125 482.644531 535.011719 486.515625 531.894531 490.308594 C 528.78125 494.105469 525.574219 497.820312 522.277344 501.460938 C 518.980469 505.097656 515.597656 508.652344 512.125 512.125 C 508.652344 515.59375 505.097656 518.980469 501.460938 522.277344 C 497.824219 525.574219 494.105469 528.78125 490.3125 531.894531 C 486.515625 535.007812 482.648438 538.027344 478.703125 540.953125 C 474.761719 543.878906 470.746094 546.703125 466.664062 549.433594 C 462.582031 552.160156 458.4375 554.785156 454.226562 557.308594 C 450.011719 559.832031 445.742188 562.253906 441.414062 564.566406 C 437.082031 566.882812 432.699219 569.089844 428.261719 571.1875 C 423.824219 573.285156 419.335938 575.277344 414.800781 577.15625 C 410.265625 579.035156 405.683594 580.800781 401.0625 582.453125 C 396.4375 584.109375 391.777344 585.648438 387.082031 587.074219 C 382.382812 588.496094 377.652344 589.808594 372.890625 591 C 368.125 592.191406 363.335938 593.269531 358.523438 594.226562 C 353.707031 595.183594 348.871094 596.023438 344.015625 596.742188 C 339.160156 597.464844 334.285156 598.066406 329.402344 598.546875 C 324.515625 599.027344 319.621094 599.386719 314.714844 599.628906 C 309.8125 599.871094 304.90625 599.992188 299.996094 599.992188 C 295.085938 599.992188 290.179688 599.871094 285.277344 599.628906 C 280.371094 599.386719 275.476562 599.027344 270.589844 598.546875 C 265.707031 598.066406 260.835938 597.464844 255.976562 596.742188 C 251.121094 596.023438 246.285156 595.183594 241.46875 594.226562 C 236.65625 593.269531 231.867188 592.191406 227.105469 591 C 222.339844 589.808594 217.609375 588.496094 212.914062 587.074219 C 208.214844 585.648438 203.554688 584.109375 198.929688 582.453125 C 194.308594 580.800781 189.730469 579.035156 185.191406 577.15625 C 180.65625 575.277344 176.171875 573.285156 171.730469 571.1875 C 167.292969 569.089844 162.910156 566.882812 158.578125 564.566406 C 154.25 562.253906 149.980469 559.832031 145.769531 557.308594 C 141.558594 554.785156 137.410156 552.160156 133.328125 549.433594 C 129.246094 546.703125 125.234375 543.878906 121.289062 540.953125 C 117.347656 538.027344 113.476562 535.007812 109.679688 531.894531 C 105.886719 528.78125 102.167969 525.574219 98.53125 522.277344 C 94.894531 518.980469 91.339844 515.59375 87.867188 512.125 C 84.394531 508.652344 81.011719 505.097656 77.714844 501.460938 C 74.417969 497.820312 71.210938 494.105469 68.097656 490.308594 C 64.980469 486.515625 61.960938 482.644531 59.039062 478.703125 C 56.113281 474.757812 53.289062 470.746094 50.558594 466.664062 C 47.832031 462.582031 45.207031 458.433594 42.683594 454.222656 C 40.15625 450.011719 37.738281 445.742188 35.425781 441.414062 C 33.109375 437.082031 30.902344 432.699219 28.804688 428.261719 C 26.703125 423.820312 24.714844 419.335938 22.835938 414.796875 C 20.957031 410.261719 19.191406 405.683594 17.539062 401.0625 C 15.882812 396.4375 14.34375 391.777344 12.917969 387.078125 C 11.492188 382.382812 10.183594 377.652344 8.992188 372.886719 C 7.796875 368.125 6.722656 363.335938 5.765625 358.519531 C 4.808594 353.707031 3.96875 348.871094 3.25 344.015625 C 2.527344 339.15625 1.925781 334.285156 1.445312 329.398438 C 0.964844 324.515625 0.601562 319.621094 0.363281 314.714844 C 0.121094 309.8125 0 304.90625 0 299.996094 C 0 295.085938 0.121094 290.179688 0.363281 285.273438 C 0.601562 280.371094 0.964844 275.476562 1.445312 270.589844 C 1.925781 265.703125 2.527344 260.832031 3.25 255.976562 C 3.96875 251.121094 4.808594 246.285156 5.765625 241.46875 C 6.722656 236.652344 7.796875 231.863281 8.992188 227.101562 C 10.183594 222.339844 11.492188 217.609375 12.917969 212.910156 C 14.34375 208.214844 15.882812 203.550781 17.539062 198.929688 C 19.191406 194.308594 20.957031 189.726562 22.835938 185.191406 C 24.714844 180.65625 26.703125 176.167969 28.804688 171.730469 C 30.902344 167.292969 33.109375 162.910156 35.425781 158.578125 C 37.738281 154.25 40.15625 149.976562 42.683594 145.765625 C 45.207031 141.554688 47.832031 137.410156 50.558594 133.328125 C 53.289062 129.246094 56.113281 125.230469 59.039062 121.289062 C 61.960938 117.34375 64.980469 113.476562 68.097656 109.679688 C 71.210938 105.886719 74.417969 102.167969 77.714844 98.53125 C 81.011719 94.894531 84.394531 91.339844 87.867188 87.867188 C 91.339844 84.394531 94.894531 81.011719 98.53125 77.714844 C 102.167969 74.417969 105.886719 71.210938 109.679688 68.097656 C 113.476562 64.980469 117.347656 61.960938 121.289062 59.035156 C 125.234375 56.113281 129.246094 53.285156 133.328125 50.558594 C 137.410156 47.832031 141.558594 45.203125 145.769531 42.679688 C 149.980469 40.15625 154.25 37.738281 158.578125 35.421875 C 162.910156 33.109375 167.292969 30.902344 171.730469 28.804688 C 176.171875 26.703125 180.65625 24.714844 185.191406 22.835938 C 189.730469 20.957031 194.308594 19.191406 198.929688 17.535156 C 203.554688 15.882812 208.214844 14.34375 212.914062 12.917969 C 217.609375 11.492188 222.339844 10.183594 227.101562 8.992188 C 231.867188 7.796875 236.65625 6.722656 241.46875 5.765625 C 246.285156 4.804688 251.121094 3.96875 255.976562 3.246094 C 260.835938 2.527344 265.707031 1.925781 270.589844 1.445312 C 275.476562 0.964844 280.371094 0.601562 285.277344 0.363281 C 290.179688 0.121094 295.085938 0 299.996094 0 C 304.90625 0 309.8125 0.121094 314.714844 0.363281 C 319.621094 0.601562 324.515625 0.964844 329.402344 1.445312 C 334.285156 1.925781 339.160156 2.527344 344.015625 3.246094 C 348.871094 3.96875 353.707031 4.804688 358.523438 5.765625 C 363.335938 6.722656 368.125 7.796875 372.890625 8.992188 C 377.652344 10.183594 382.382812 11.492188 387.082031 12.917969 C 391.777344 14.34375 396.4375 15.882812 401.0625 17.535156 C 405.683594 19.191406 410.265625 20.957031 414.800781 22.835938 C 419.335938 24.714844 423.824219 26.703125 428.261719 28.804688 C 432.699219 30.902344 437.082031 33.109375 441.414062 35.421875 C 445.742188 37.738281 450.015625 40.15625 454.226562 42.679688 C 458.4375 45.203125 462.582031 47.832031 466.664062 50.558594 C 470.746094 53.285156 474.761719 56.113281 478.703125 59.035156 C 482.648438 61.960938 486.515625 64.980469 490.3125 68.097656 C 494.105469 71.210938 497.824219 74.417969 501.460938 77.714844 C 505.097656 81.011719 508.652344 84.394531 512.125 87.867188 C 515.597656 91.339844 518.980469 94.894531 522.277344 98.53125 C 525.574219 102.167969 528.78125 105.886719 531.894531 109.679688 C 535.011719 113.476562 538.03125 117.34375 540.953125 121.289062 C 543.878906 125.230469 546.707031 129.246094 549.433594 133.328125 C 552.160156 137.410156 554.785156 141.554688 557.3125 145.765625 C 559.835938 149.976562 562.253906 154.25 564.570312 158.578125 C 566.882812 162.910156 569.089844 167.292969 571.1875 171.730469 C 573.289062 176.167969 575.277344 180.65625 577.15625 185.191406 C 579.035156 189.726562 580.800781 194.308594 582.457031 198.929688 C 584.109375 203.550781 585.648438 208.214844 587.074219 212.910156 C 588.5 217.609375 589.808594 222.339844 591 227.101562 C 592.195312 231.863281 593.269531 236.652344 594.226562 241.46875 C 595.183594 246.285156 596.023438 251.121094 596.746094 255.976562 C 597.464844 260.832031 598.066406 265.703125 598.546875 270.589844 C 599.027344 275.476562 599.390625 280.371094 599.628906 285.273438 C 599.871094 290.179688 599.992188 295.085938 599.992188 299.996094 Z M 599.992188 299.996094 "/><path style=" stroke:none;fill-rule:nonzero;fill:#2682bf;fill-opacity:1;" d="M 599.5 282.84375 C 599.820312 288.519531 599.996094 294.238281 599.996094 300 C 599.996094 465.683594 465.683594 600 299.996094 600 C 294.199219 600 288.441406 599.816406 282.726562 599.496094 L 142.324219 459.09375 L 459.539062 142.890625 L 599.496094 282.847656 Z M 599.5 282.84375 "/><path style=" stroke:none;fill-rule:nonzero;fill:#e84f4f;fill-opacity:1;" d="M 151.019531 137.675781 L 448.980469 137.675781 C 456.351562 137.675781 462.324219 143.648438 462.324219 151.019531 L 462.324219 448.980469 C 462.324219 456.347656 456.347656 462.320312 448.980469 462.320312 L 151.019531 462.320312 C 143.648438 462.320312 137.675781 456.347656 137.675781 448.980469 L 137.675781 151.019531 C 137.675781 143.648438 143.648438 137.675781 151.019531 137.675781 Z M 151.019531 137.675781 "/><path style=" stroke:none;fill-rule:nonzero;fill:#efeff0;fill-opacity:1;" d="M 145.988281 185.632812 L 454.015625 185.632812 L 454.015625 454.027344 L 145.988281 454.027344 Z M 145.988281 185.632812 "/><path style=" stroke:none;fill-rule:nonzero;fill:#ebecec;fill-opacity:1;" d="M 249.957031 153.121094 L 431.851562 153.121094 C 433.382812 153.121094 434.621094 154.363281 434.621094 155.890625 L 434.621094 163.425781 C 434.621094 164.957031 433.378906 166.195312 431.851562 166.195312 L 249.957031 166.195312 C 248.429688 166.195312 247.1875 164.953125 247.1875 163.425781 L 247.1875 155.890625 C 247.1875 154.359375 248.429688 153.121094 249.957031 153.121094 Z M 249.957031 153.121094 "/><path style=" stroke:none;fill-rule:nonzero;fill:#ebecec;fill-opacity:1;" d="M 168.59375 150.117188 C 173.867188 150.117188 178.140625 154.394531 178.140625 159.664062 C 178.140625 164.933594 173.867188 169.210938 168.59375 169.210938 C 163.320312 169.210938 159.046875 164.9375 159.046875 159.664062 C 159.046875 154.394531 163.324219 150.117188 168.59375 150.117188 Z M 218.417969 150.117188 C 223.691406 150.117188 227.96875 154.394531 227.96875 159.664062 C 227.96875 164.933594 223.691406 169.210938 218.417969 169.210938 C 213.152344 169.210938 208.875 164.9375 208.875 159.664062 C 208.875 154.394531 213.152344 150.117188 218.417969 150.117188 Z M 193.507812 150.117188 C 198.777344 150.117188 203.058594 154.394531 203.058594 159.664062 C 203.058594 164.933594 198.78125 169.210938 193.507812 169.210938 C 188.238281 169.210938 183.960938 164.9375 183.960938 159.664062 C 183.960938 154.394531 188.238281 150.117188 193.507812 150.117188 Z M 193.507812 150.117188 "/><path style=" stroke:none;fill-rule:nonzero;fill:#c94545;fill-opacity:1;" d="M 333.679688 419.714844 L 290.023438 394.828125 L 286.003906 392.539062 L 290.023438 390.246094 L 333.679688 365.359375 L 337.625 363.101562 L 337.625 384.375 C 350.714844 380.03125 362.050781 371.804688 370.238281 361.050781 C 378.90625 349.671875 384.050781 335.460938 384.050781 320.035156 C 384.050781 301.324219 376.460938 284.382812 364.203125 272.121094 C 351.945312 259.863281 335 252.273438 316.292969 252.273438 L 310.113281 252.542969 L 309.683594 238.023438 C 311.878906 237.851562 314.082031 237.757812 316.292969 237.757812 C 339.007812 237.757812 359.582031 246.972656 374.46875 261.859375 C 389.355469 276.746094 398.570312 297.316406 398.570312 320.035156 C 398.570312 339.222656 391.996094 356.878906 380.980469 370.871094 C 370.15625 384.617188 355.027344 394.832031 337.628906 399.496094 L 337.628906 421.964844 L 333.683594 419.714844 Z M 333.679688 419.714844 "/><path style=" stroke:none;fill-rule:nonzero;fill:#006775;fill-opacity:1;" d="M 255.667969 271.324219 C 254.558594 272.550781 253.679688 273.527344 253.179688 274.210938 C 254.964844 275.429688 256.480469 276.480469 257.855469 277.4375 C 266.628906 283.515625 270.324219 286.074219 284.503906 292.539062 L 285.492188 292.988281 L 284.769531 293.800781 L 277.40625 302.136719 L 277.066406 302.519531 L 276.578125 302.371094 C 266.734375 299.355469 253.53125 289.191406 244.828125 282.484375 L 244.472656 282.210938 C 240.871094 284.96875 235.222656 289.1875 229.382812 293.101562 C 223.234375 297.214844 216.855469 300.992188 212.355469 302.371094 L 211.867188 302.523438 L 211.519531 302.140625 L 204.386719 294.066406 L 203.671875 293.253906 L 204.660156 292.804688 C 207 291.734375 208.78125 291.015625 210.386719 290.371094 C 213.8125 288.988281 216.472656 287.917969 221.773438 284.589844 C 224.074219 283.148438 228.21875 280.449219 231.644531 277.941406 C 233.496094 276.585938 235.117188 275.300781 236.078125 274.328125 C 233.058594 271.4375 228.824219 266.578125 225.21875 261.222656 C 222.332031 256.941406 219.828125 252.316406 218.628906 248.089844 L 218.347656 247.074219 L 219.40625 247.070312 L 231.890625 246.992188 L 232.375 246.984375 L 232.601562 247.414062 C 233.527344 249.152344 233.957031 250.210938 234.34375 251.183594 C 234.972656 252.738281 235.515625 254.09375 238.113281 257.9375 C 239.386719 259.816406 240.515625 261.386719 241.667969 262.816406 C 242.707031 264.101562 243.789062 265.308594 245.035156 266.539062 C 247.730469 264.6875 252.140625 259 255.4375 252.550781 C 257.957031 247.640625 259.792969 242.3125 259.691406 237.980469 L 203.140625 237.886719 L 202.335938 237.882812 L 202.335938 225.417969 L 203.140625 225.417969 L 238.285156 225.414062 L 238.285156 214.628906 L 250.675781 214.628906 L 250.667969 215.433594 L 250.65625 225.414062 L 285.8125 225.40625 L 286.621094 225.398438 L 286.621094 226.207031 L 286.625 236.996094 L 286.628906 237.792969 L 285.820312 237.800781 L 272.25 237.804688 C 271.1875 254.128906 260.949219 265.476562 255.660156 271.328125 L 255.65625 271.328125 Z M 255.667969 271.324219 "/><path style=" stroke:none;fill-rule:nonzero;fill:#006775;fill-opacity:1;" d="M 201.4375 428.375 L 217.601562 428.449219 L 224.28125 408.097656 L 264.945312 408.050781 L 271.597656 428.402344 L 287.535156 428.390625 L 253.75 342.378906 L 235.253906 342.335938 L 201.429688 428.375 Z M 228.90625 396.484375 L 260.191406 396.707031 L 244.808594 356.914062 Z M 228.90625 396.484375 "/></g></svg>