<svg width="144" height="28" viewBox="0 0 144 28" fill="none" xmlns="http://www.w3.org/2000/svg">
<path d="M37.836 20C37.716 20 37.614 19.958 37.53 19.874C37.446 19.79 37.404 19.688 37.404 19.568V7.85C37.404 7.718 37.44 7.61 37.512 7.526C37.596 7.442 37.704 7.4 37.836 7.4H39.42C39.552 7.4 39.66 7.442 39.744 7.526C39.828 7.61 39.87 7.718 39.87 7.85V12.062L43.938 7.724C44.094 7.508 44.328 7.4 44.64 7.4H46.422C46.518 7.4 46.602 7.436 46.674 7.508C46.758 7.58 46.8 7.67 46.8 7.778C46.8 7.862 46.776 7.934 46.728 7.994L41.778 13.43L47.07 19.388C47.13 19.46 47.16 19.538 47.16 19.622C47.16 19.73 47.118 19.82 47.034 19.892C46.962 19.964 46.878 20 46.782 20H44.928C44.628 20 44.394 19.892 44.226 19.676L39.87 14.906V19.568C39.87 19.7 39.828 19.808 39.744 19.892C39.66 19.964 39.552 20 39.42 20H37.836ZM52.0657 20.18C50.7337 20.18 49.6717 19.796 48.8797 19.028C48.0997 18.248 47.6857 17.156 47.6377 15.752L47.6197 15.302L47.6377 14.852C47.6977 13.484 48.1177 12.41 48.8977 11.63C49.6897 10.85 50.7457 10.46 52.0657 10.46C53.4817 10.46 54.5737 10.892 55.3417 11.756C56.1217 12.62 56.5117 13.772 56.5117 15.212V15.59C56.5117 15.71 56.4697 15.812 56.3857 15.896C56.3017 15.98 56.1937 16.022 56.0617 16.022H50.0857V16.166C50.1097 16.826 50.2897 17.384 50.6257 17.84C50.9737 18.284 51.4477 18.506 52.0477 18.506C52.7557 18.506 53.3257 18.23 53.7577 17.678C53.8657 17.546 53.9497 17.462 54.0097 17.426C54.0817 17.39 54.1837 17.372 54.3157 17.372H55.8637C55.9717 17.372 56.0617 17.408 56.1337 17.48C56.2177 17.54 56.2597 17.618 56.2597 17.714C56.2597 18.002 56.0857 18.344 55.7377 18.74C55.4017 19.124 54.9157 19.46 54.2797 19.748C53.6437 20.036 52.9057 20.18 52.0657 20.18ZM54.0637 14.51V14.456C54.0637 13.748 53.8837 13.178 53.5237 12.746C53.1757 12.314 52.6897 12.098 52.0657 12.098C51.4417 12.098 50.9557 12.314 50.6077 12.746C50.2597 13.178 50.0857 13.748 50.0857 14.456V14.51H54.0637ZM62.4544 20.18C61.1224 20.18 60.0604 19.796 59.2684 19.028C58.4884 18.248 58.0744 17.156 58.0264 15.752L58.0084 15.302L58.0264 14.852C58.0864 13.484 58.5064 12.41 59.2864 11.63C60.0784 10.85 61.1344 10.46 62.4544 10.46C63.8704 10.46 64.9624 10.892 65.7304 11.756C66.5104 12.62 66.9004 13.772 66.9004 15.212V15.59C66.9004 15.71 66.8584 15.812 66.7744 15.896C66.6904 15.98 66.5824 16.022 66.4504 16.022H60.4744V16.166C60.4984 16.826 60.6784 17.384 61.0144 17.84C61.3624 18.284 61.8364 18.506 62.4364 18.506C63.1444 18.506 63.7144 18.23 64.1464 17.678C64.2544 17.546 64.3384 17.462 64.3984 17.426C64.4704 17.39 64.5724 17.372 64.7044 17.372H66.2524C66.3604 17.372 66.4504 17.408 66.5224 17.48C66.6064 17.54 66.6484 17.618 66.6484 17.714C66.6484 18.002 66.4744 18.344 66.1264 18.74C65.7904 19.124 65.3044 19.46 64.6684 19.748C64.0324 20.036 63.2944 20.18 62.4544 20.18ZM64.4524 14.51V14.456C64.4524 13.748 64.2724 13.178 63.9124 12.746C63.5644 12.314 63.0784 12.098 62.4544 12.098C61.8304 12.098 61.3444 12.314 60.9964 12.746C60.6484 13.178 60.4744 13.748 60.4744 14.456V14.51H64.4524ZM69.243 20C69.123 20 69.021 19.958 68.937 19.874C68.853 19.79 68.811 19.688 68.811 19.568V11.072C68.811 10.952 68.853 10.85 68.937 10.766C69.021 10.682 69.123 10.64 69.243 10.64H70.719C70.839 10.64 70.941 10.682 71.025 10.766C71.109 10.85 71.151 10.952 71.151 11.072V11.81C71.859 10.91 72.861 10.46 74.157 10.46C75.261 10.46 76.137 10.826 76.785 11.558C77.433 12.278 77.757 13.262 77.757 14.51V19.568C77.757 19.688 77.715 19.79 77.631 19.874C77.559 19.958 77.457 20 77.325 20H75.741C75.621 20 75.519 19.958 75.435 19.874C75.351 19.79 75.309 19.688 75.309 19.568V14.618C75.309 13.91 75.135 13.364 74.787 12.98C74.451 12.584 73.959 12.386 73.311 12.386C72.675 12.386 72.171 12.584 71.799 12.98C71.439 13.376 71.259 13.922 71.259 14.618V19.568C71.259 19.688 71.217 19.79 71.133 19.874C71.061 19.958 70.959 20 70.827 20H69.243ZM83.6975 20C83.5775 20 83.4815 19.964 83.4095 19.892C83.3375 19.82 83.3015 19.724 83.3015 19.604V8.48H79.7375C79.6175 8.48 79.5215 8.444 79.4495 8.372C79.3775 8.3 79.3415 8.204 79.3415 8.084V7.814C79.3415 7.694 79.3775 7.598 79.4495 7.526C79.5215 7.442 79.6175 7.4 79.7375 7.4H87.9815C88.1135 7.4 88.2155 7.436 88.2875 7.508C88.3595 7.58 88.3955 7.682 88.3955 7.814V8.084C88.3955 8.204 88.3535 8.3 88.2695 8.372C88.1975 8.444 88.1015 8.48 87.9815 8.48H84.4355V19.604C84.4355 19.724 84.3935 19.82 84.3095 19.892C84.2375 19.964 84.1415 20 84.0215 20H83.6975ZM90.3427 20C90.2227 20 90.1267 19.964 90.0547 19.892C89.9827 19.82 89.9467 19.724 89.9467 19.604V7.616C89.9467 7.496 89.9827 7.4 90.0547 7.328C90.1267 7.256 90.2227 7.22 90.3427 7.22H90.6487C90.7687 7.22 90.8647 7.256 90.9367 7.328C91.0087 7.4 91.0447 7.496 91.0447 7.616V11.882C91.4047 11.414 91.8127 11.06 92.2687 10.82C92.7367 10.58 93.3367 10.46 94.0687 10.46C95.2447 10.46 96.1507 10.838 96.7867 11.594C97.4227 12.338 97.7407 13.304 97.7407 14.492V19.604C97.7407 19.724 97.7047 19.82 97.6327 19.892C97.5607 19.964 97.4647 20 97.3447 20H97.0387C96.9187 20 96.8227 19.964 96.7507 19.892C96.6787 19.82 96.6427 19.724 96.6427 19.604V14.582C96.6427 13.61 96.4027 12.854 95.9227 12.314C95.4547 11.774 94.7767 11.504 93.8887 11.504C93.0247 11.504 92.3347 11.78 91.8187 12.332C91.3027 12.872 91.0447 13.622 91.0447 14.582V19.604C91.0447 19.724 91.0087 19.82 90.9367 19.892C90.8647 19.964 90.7687 20 90.6487 20H90.3427ZM104.037 20.18C102.897 20.18 101.979 19.808 101.283 19.064C100.587 18.308 100.191 17.3 100.095 16.04L100.077 15.32L100.095 14.6C100.191 13.352 100.581 12.35 101.265 11.594C101.961 10.838 102.885 10.46 104.037 10.46C105.285 10.46 106.257 10.874 106.953 11.702C107.661 12.53 108.015 13.664 108.015 15.104V15.374C108.015 15.494 107.973 15.59 107.889 15.662C107.817 15.734 107.721 15.77 107.601 15.77H101.193V15.95C101.217 16.514 101.343 17.042 101.571 17.534C101.811 18.014 102.141 18.404 102.561 18.704C102.981 18.992 103.473 19.136 104.037 19.136C104.697 19.136 105.231 19.01 105.639 18.758C106.059 18.494 106.359 18.23 106.539 17.966C106.647 17.822 106.725 17.732 106.773 17.696C106.833 17.66 106.935 17.642 107.079 17.642H107.367C107.475 17.642 107.565 17.672 107.637 17.732C107.709 17.792 107.745 17.87 107.745 17.966C107.745 18.218 107.583 18.524 107.259 18.884C106.947 19.232 106.509 19.538 105.945 19.802C105.381 20.054 104.745 20.18 104.037 20.18ZM106.917 14.762V14.69C106.917 13.766 106.653 13.004 106.125 12.404C105.609 11.804 104.913 11.504 104.037 11.504C103.161 11.504 102.465 11.804 101.949 12.404C101.445 13.004 101.193 13.766 101.193 14.69V14.762H106.917ZM110.786 20C110.666 20 110.57 19.964 110.498 19.892C110.426 19.82 110.39 19.724 110.39 19.604V11.036C110.39 10.916 110.426 10.82 110.498 10.748C110.57 10.676 110.666 10.64 110.786 10.64H111.092C111.212 10.64 111.308 10.676 111.38 10.748C111.452 10.82 111.488 10.916 111.488 11.036V11.666C111.8 11.27 112.16 10.97 112.568 10.766C112.988 10.562 113.486 10.46 114.062 10.46C115.406 10.46 116.366 11.024 116.942 12.152C117.23 11.636 117.638 11.228 118.166 10.928C118.706 10.616 119.318 10.46 120.002 10.46C120.998 10.46 121.808 10.802 122.432 11.486C123.056 12.158 123.368 13.118 123.368 14.366V19.604C123.368 19.724 123.332 19.82 123.26 19.892C123.188 19.964 123.092 20 122.972 20H122.666C122.546 20 122.45 19.964 122.378 19.892C122.306 19.82 122.27 19.724 122.27 19.604V14.546C122.27 13.454 122.042 12.674 121.586 12.206C121.142 11.738 120.554 11.504 119.822 11.504C119.174 11.504 118.61 11.744 118.13 12.224C117.662 12.692 117.428 13.466 117.428 14.546V19.604C117.428 19.724 117.392 19.82 117.32 19.892C117.248 19.964 117.152 20 117.032 20H116.726C116.606 20 116.51 19.964 116.438 19.892C116.366 19.82 116.33 19.724 116.33 19.604V14.546C116.33 13.466 116.096 12.692 115.628 12.224C115.16 11.744 114.578 11.504 113.882 11.504C113.234 11.504 112.67 11.744 112.19 12.224C111.722 12.692 111.488 13.46 111.488 14.528V19.604C111.488 19.724 111.452 19.82 111.38 19.892C111.308 19.964 111.212 20 111.092 20H110.786ZM129.666 20.18C128.526 20.18 127.608 19.808 126.912 19.064C126.216 18.308 125.82 17.3 125.724 16.04L125.706 15.32L125.724 14.6C125.82 13.352 126.21 12.35 126.894 11.594C127.59 10.838 128.514 10.46 129.666 10.46C130.914 10.46 131.886 10.874 132.582 11.702C133.29 12.53 133.644 13.664 133.644 15.104V15.374C133.644 15.494 133.602 15.59 133.518 15.662C133.446 15.734 133.35 15.77 133.23 15.77H126.822V15.95C126.846 16.514 126.972 17.042 127.2 17.534C127.44 18.014 127.77 18.404 128.19 18.704C128.61 18.992 129.102 19.136 129.666 19.136C130.326 19.136 130.86 19.01 131.268 18.758C131.688 18.494 131.988 18.23 132.168 17.966C132.276 17.822 132.354 17.732 132.402 17.696C132.462 17.66 132.564 17.642 132.708 17.642H132.996C133.104 17.642 133.194 17.672 133.266 17.732C133.338 17.792 133.374 17.87 133.374 17.966C133.374 18.218 133.212 18.524 132.888 18.884C132.576 19.232 132.138 19.538 131.574 19.802C131.01 20.054 130.374 20.18 129.666 20.18ZM132.546 14.762V14.69C132.546 13.766 132.282 13.004 131.754 12.404C131.238 11.804 130.542 11.504 129.666 11.504C128.79 11.504 128.094 11.804 127.578 12.404C127.074 13.004 126.822 13.766 126.822 14.69V14.762H132.546ZM138.989 20.18C138.209 20.18 137.549 20.048 137.009 19.784C136.481 19.52 136.079 19.22 135.803 18.884C135.539 18.548 135.407 18.278 135.407 18.074C135.407 17.966 135.449 17.882 135.533 17.822C135.617 17.75 135.707 17.714 135.803 17.714H136.073C136.157 17.714 136.223 17.732 136.271 17.768C136.331 17.792 136.397 17.852 136.469 17.948C136.733 18.32 137.051 18.614 137.423 18.83C137.807 19.034 138.329 19.136 138.989 19.136C139.733 19.136 140.333 18.998 140.789 18.722C141.245 18.434 141.473 18.026 141.473 17.498C141.473 17.174 141.377 16.91 141.185 16.706C141.005 16.502 140.705 16.328 140.285 16.184C139.877 16.028 139.265 15.854 138.449 15.662C137.381 15.422 136.649 15.092 136.253 14.672C135.869 14.252 135.677 13.718 135.677 13.07C135.677 12.626 135.797 12.206 136.037 11.81C136.289 11.414 136.655 11.09 137.135 10.838C137.627 10.586 138.215 10.46 138.899 10.46C139.619 10.46 140.225 10.586 140.717 10.838C141.221 11.078 141.593 11.36 141.833 11.684C142.085 12.008 142.211 12.272 142.211 12.476C142.211 12.584 142.169 12.674 142.085 12.746C142.013 12.806 141.923 12.836 141.815 12.836H141.545C141.377 12.836 141.245 12.758 141.149 12.602C140.909 12.242 140.633 11.972 140.321 11.792C140.021 11.6 139.547 11.504 138.899 11.504C138.203 11.504 137.675 11.648 137.315 11.936C136.955 12.224 136.775 12.602 136.775 13.07C136.775 13.358 136.847 13.598 136.991 13.79C137.135 13.982 137.405 14.162 137.801 14.33C138.197 14.486 138.773 14.648 139.529 14.816C140.645 15.068 141.431 15.404 141.887 15.824C142.343 16.244 142.571 16.802 142.571 17.498C142.571 17.99 142.433 18.44 142.157 18.848C141.881 19.256 141.473 19.58 140.933 19.82C140.393 20.06 139.745 20.18 138.989 20.18Z" fill="#3F4254"/>
<g clip-path="url(#clip0)">
<path d="M25.402 1.37404C25.5367 1.22411 25.6115 1.0288 25.6118 0.826128C25.6118 0.608229 25.5268 0.39915 25.3752 0.24442C25.2236 0.0896895 25.0178 0.00183968 24.8025 0H24.7925L11.277 0.00697453H11.2671C11.0753 0.00694157 10.8855 0.0470626 10.7097 0.124815C10.534 0.202568 10.376 0.316273 10.2457 0.458788C9.3537 1.37016 7.06896 3.67108 2.94663 7.6196C-2.56614 12.8995 1.34716 18.112 1.34716 18.112L6.38905 23.2153C5.2061 21.9358 6.6578 20.2487 6.6578 20.2487L25.3499 1.43371C25.3637 1.42054 25.3775 1.40659 25.3905 1.39264L25.4035 1.37869L25.402 1.37404Z" fill="#0094FF"/>
<path d="M26.0333 26.6213L26.0287 26.6166L15.0078 15.4755C14.9298 15.3977 14.8373 15.3363 14.7358 15.2948C14.6342 15.2533 14.5256 15.2325 14.416 15.2336C14.3065 15.2348 14.1983 15.2578 14.0977 15.3015C13.997 15.3451 13.9058 15.4085 13.8294 15.4879L8.00119 21.3561C6.5227 23.1525 7.4101 24.0778 7.4101 24.0778L10.8433 27.6776C10.9311 27.7782 11.039 27.8586 11.16 27.9136C11.2809 27.9685 11.4121 27.9966 11.5447 27.9961H25.4055C25.4147 27.9961 25.4231 27.9961 25.433 27.9961C25.59 27.9951 25.7433 27.9483 25.8745 27.8613C26.0057 27.7742 26.1093 27.6506 26.1727 27.5053C26.2362 27.36 26.2568 27.1993 26.232 27.0424C26.2073 26.8856 26.1383 26.7393 26.0333 26.6213Z" fill="#3F4254"/>
</g>
<defs>
<clipPath id="clip0">
<rect width="26.25" height="28" fill="white"/>
</clipPath>
</defs>
</svg>
