<?xml version="1.0" encoding="utf-8"?><!-- Uploaded to: SVG Repo, www.svgrepo.com, Generator: SVG Repo Mixer Tools -->
<svg fill="#000000" width="800px" height="800px" viewBox="0 0 24 24" id="modern-home" data-name="Flat Line" xmlns="http://www.w3.org/2000/svg" class="icon flat-line"><path id="secondary" d="M10,21V15h4v6ZM20,10H15L12,7,9,10H3L4.79,3.73a1,1,0,0,1,1-.73h12.5a1,1,0,0,1,1,.73L21,10Z" style="fill: rgb(44, 169, 188); stroke-width: 2;"></path><path id="primary" d="M10,21V15h4v6Zm5-11L12,7,9,10H4V21H20V10Zm5,0H15L12,7,9,10H3L4.79,3.73a1,1,0,0,1,1-.73h12.5a1,1,0,0,1,1,.73L21,10Z" style="fill: none; stroke: rgb(0, 0, 0); stroke-linecap: round; stroke-linejoin: round; stroke-width: 2;"></path></svg>