<svg enable-background="new 0 0 32 32" viewBox="0 0 32 32" xmlns="http://www.w3.org/2000/svg"><path d="m28 31.36h-24c-.199 0-.36-.161-.36-.36v-6c0-.09.034-.177.095-.243l15.947-17.397h-15.682c-.199 0-.36-.161-.36-.36v-6c0-.199.161-.36.36-.36h24c.199 0 .36.161.36.36v6c0 .09-.034.177-.095.243l-15.947 17.397h15.682c.199 0 .36.161.36.36v6c0 .199-.161.36-.36.36zm-4.415-.72h4.055v-5.28h-14.615zm-14.502 0h12.892l-10.313-5.156zm-4.723 0h3.917l2.74-5.479-4.578-2.289-2.079 2.268zm2.585-8.32 4.394 2.197 7.689-15.379zm13.716-14.837-7.689 15.379 12.083-13.182zm.322-.644 4.577 2.289 2.08-2.268v-5.5h-3.917zm-16.623-.199h14.615l-10.56-5.28h-4.055zm5.665-5.28 10.314 5.157 2.579-5.157z"/><path d="m0 0h32v32h-32z" fill="none"/></svg>