<svg xmlns="http://www.w3.org/2000/svg" xmlns:xlink="http://www.w3.org/1999/xlink" width="800" zoomAndPan="magnify" viewBox="0 0 600 599.999999" height="800" preserveAspectRatio="xMidYMid meet" version="1.2"><g id="60693c2556"><path style=" stroke:none;fill-rule:evenodd;fill:#67c1b6;fill-opacity:1;" d="M 421.597656 369.507812 C 346.796875 369.507812 286.164062 355.507812 286.164062 338.253906 L 286.164062 421.597656 C 286.164062 438.851562 346.796875 452.851562 421.597656 452.851562 C 496.398438 452.851562 557.03125 438.851562 557.03125 421.597656 L 557.03125 338.253906 C 557.03125 355.507812 496.398438 369.507812 421.597656 369.507812 "/><path style=" stroke:none;fill-rule:evenodd;fill:#67c1b6;fill-opacity:1;" d="M 421.597656 286.164062 C 346.796875 286.164062 286.164062 272.164062 286.164062 254.910156 L 286.164062 338.253906 C 286.164062 355.507812 346.796875 369.507812 421.597656 369.507812 C 496.398438 369.507812 557.03125 355.507812 557.03125 338.253906 L 557.03125 254.910156 C 557.03125 272.164062 496.398438 286.164062 421.597656 286.164062 "/><path style=" stroke:none;fill-rule:evenodd;fill:#67c1b6;fill-opacity:1;" d="M 421.597656 202.820312 C 346.796875 202.820312 286.164062 188.820312 286.164062 171.566406 L 286.164062 254.910156 C 286.164062 272.164062 346.796875 286.164062 421.597656 286.164062 C 496.398438 286.164062 557.03125 272.164062 557.03125 254.910156 L 557.03125 171.566406 C 557.03125 188.820312 496.398438 202.820312 421.597656 202.820312 "/><path style=" stroke:none;fill-rule:evenodd;fill:#87d6cd;fill-opacity:1;" d="M 557.03125 171.566406 C 557.03125 188.828125 496.398438 202.820312 421.597656 202.820312 C 346.796875 202.820312 286.164062 188.828125 286.164062 171.566406 C 286.164062 154.304688 346.796875 140.3125 421.597656 140.3125 C 496.398438 140.3125 557.03125 154.304688 557.03125 171.566406 "/><path style=" stroke:none;fill-rule:evenodd;fill:#67c1b6;fill-opacity:1;" d="M 171.566406 473.6875 C 96.765625 473.6875 36.132812 459.6875 36.132812 442.433594 L 36.132812 525.777344 C 36.132812 543.03125 96.765625 557.03125 171.566406 557.03125 C 246.367188 557.03125 307 543.03125 307 525.777344 L 307 442.433594 C 307 459.6875 246.367188 473.6875 171.566406 473.6875 "/><path style=" stroke:none;fill-rule:evenodd;fill:#67c1b6;fill-opacity:1;" d="M 171.566406 390.34375 C 96.765625 390.34375 36.132812 376.34375 36.132812 359.089844 L 36.132812 442.433594 C 36.132812 459.6875 96.765625 473.6875 171.566406 473.6875 C 246.367188 473.6875 307 459.6875 307 442.433594 L 307 359.089844 C 307 376.34375 246.367188 390.34375 171.566406 390.34375 "/><path style=" stroke:none;fill-rule:evenodd;fill:#67c1b6;fill-opacity:1;" d="M 171.566406 307 C 96.765625 307 36.132812 293 36.132812 275.746094 L 36.132812 359.089844 C 36.132812 376.34375 96.765625 390.34375 171.566406 390.34375 C 246.367188 390.34375 307 376.34375 307 359.089844 L 307 275.746094 C 307 293 246.367188 307 171.566406 307 "/><path style=" stroke:none;fill-rule:evenodd;fill:#87d6cd;fill-opacity:1;" d="M 307 275.746094 C 307 293.007812 246.367188 307 171.566406 307 C 96.765625 307 36.132812 293.007812 36.132812 275.746094 C 36.132812 258.484375 96.765625 244.492188 171.566406 244.492188 C 246.367188 244.492188 307 258.484375 307 275.746094 "/><path style="fill:none;stroke-width:2;stroke-linecap:round;stroke-linejoin:round;stroke:#4aa598;stroke-opacity:1;stroke-miterlimit:4;" d="M 50.000003 14.999996 C 50.000003 16.656914 44.17998 17.999997 37.000002 17.999997 C 29.820023 17.999997 24 16.656914 24 14.999996 C 24 13.343078 29.820023 11.999996 37.000002 11.999996 C 44.17998 11.999996 50.000003 13.343078 50.000003 14.999996 Z M 50.000003 14.999996 " transform="matrix(10.417967,0,0,10.417967,36.132849,15.296936)"/><path style="fill:none;stroke-width:2;stroke-linecap:round;stroke-linejoin:round;stroke:#358779;stroke-opacity:1;stroke-miterlimit:4;" d="M 26.001125 40.59955 C 28.304087 41.441695 32.368955 41.999625 37.000002 41.999625 C 44.17998 41.999625 50.000003 40.657668 50.000003 38.999625 L 50.000003 14.999621 " transform="matrix(10.417967,0,0,10.417967,36.132849,15.296936)"/><path style="fill:none;stroke-width:2;stroke-linecap:round;stroke-linejoin:round;stroke:#358779;stroke-opacity:1;stroke-miterlimit:4;" d="M 25.995126 32.597674 C 28.296963 33.440569 32.365205 33.999624 37.000002 33.999624 C 44.17998 33.999624 50.000003 32.657666 50.000003 30.999623 " transform="matrix(10.417967,0,0,10.417967,36.132849,15.296936)"/><path style="fill:none;stroke-width:2;stroke-linecap:round;stroke-linejoin:round;stroke:#358779;stroke-opacity:1;stroke-miterlimit:4;" d="M 25.84177 24.53993 C 28.112861 25.415071 32.260968 25.999998 36.999627 25.999998 C 44.17998 25.999998 49.999628 24.656915 49.999628 22.999997 " transform="matrix(10.417967,0,0,10.417967,36.132849,15.296936)"/><path style="fill:none;stroke-width:2;stroke-linecap:round;stroke-linejoin:round;stroke:#358779;stroke-opacity:1;stroke-miterlimit:4;" d="M 24 14.999996 L 24 23.400822 " transform="matrix(10.417967,0,0,10.417967,36.132849,15.296936)"/><path style="fill:none;stroke-width:2;stroke-linecap:round;stroke-linejoin:round;stroke:#4aa598;stroke-opacity:1;stroke-miterlimit:4;" d="M 26 24.999998 C 26 26.656916 20.179977 27.999998 12.999998 27.999998 C 5.82002 27.999998 -0.00000351108 26.656916 -0.00000351108 24.999998 C -0.00000351108 23.343079 5.82002 21.999997 12.999998 21.999997 C 20.179977 21.999997 26 23.343079 26 24.999998 Z M 26 24.999998 " transform="matrix(10.417967,0,0,10.417967,36.132849,15.296936)"/><path style="fill:none;stroke-width:2;stroke-linecap:round;stroke-linejoin:round;stroke:#358779;stroke-opacity:1;stroke-miterlimit:4;" d="M 26 32.999999 C 26 34.656917 20.179977 35.999999 12.999998 35.999999 C 5.82002 35.999999 -0.00000351108 34.656917 -0.00000351108 32.999999 " transform="matrix(10.417967,0,0,10.417967,36.132849,15.296936)"/><path style="fill:none;stroke-width:2;stroke-linecap:round;stroke-linejoin:round;stroke:#358779;stroke-opacity:1;stroke-miterlimit:4;" d="M 26 41 C 26 42.656918 20.179977 44 12.999998 44 C 5.82002 44 -0.00000351108 42.656918 -0.00000351108 41 " transform="matrix(10.417967,0,0,10.417967,36.132849,15.296936)"/><path style="fill:none;stroke-width:2;stroke-linecap:round;stroke-linejoin:round;stroke:#358779;stroke-opacity:1;stroke-miterlimit:4;" d="M -0.00000351108 24.999998 L -0.00000351108 49.000001 C -0.00000351108 50.656919 5.82002 52.000001 12.999998 52.000001 C 20.179977 52.000001 26 50.656919 26 49.000001 L 26 24.999998 " transform="matrix(10.417967,0,0,10.417967,36.132849,15.296936)"/><path style="fill:none;stroke-width:2;stroke-linecap:round;stroke-linejoin:round;stroke:#7bbdec;stroke-opacity:1;stroke-miterlimit:4;" d="M 34.944133 8.006744 C 33.179229 3.27371 29.390327 -0.000380792 25.000375 -0.000380792 C 18.924259 -0.000380792 14.000373 6.267712 14.000373 13.999621 L 14.000373 17.999622 " transform="matrix(10.417967,0,0,10.417967,36.132849,15.296936)"/><path style="fill:none;stroke-width:2;stroke-linecap:round;stroke-linejoin:round;stroke:#7bbdec;stroke-opacity:1;stroke-miterlimit:4;" d="M 8.999998 12.999996 L 13.999998 17.999997 L 18.999999 12.999996 " transform="matrix(10.417967,0,0,10.417967,36.132849,15.296936)"/></g></svg>